<svg fill="#B3B3B3" xmlns="http://www.w3.org/2000/svg" xmlns:xlink="http://www.w3.org/1999/xlink" version="1.1" x="0px" y="0px" viewBox="0 0 100 100" style="enable-background:new 0 0 100 100;" xml:space="preserve"><g><path d="M85.7,24c-6.3,0-11.4,5.1-11.4,11.4c0,2.1,0.6,4,1.5,5.7L70,49.4c-1.2-0.4-2.4-0.6-3.7-0.6c-2.7,0-5.1,0.9-7.1,2.5   l-9.2-10.9c-0.2-6.1-5.2-11-11.4-11c-6.3,0-11.4,5.1-11.4,11.4c0,0.6,0.1,1.3,0.2,1.9l-8.3,11.6c-1.5-0.7-3.1-1.1-4.8-1.1   C8,53.2,2.9,58.3,2.9,64.6S8,76,14.3,76s11.4-5.1,11.4-11.4c0-2-0.5-3.9-1.5-5.6l6.9-9.7c2,1.7,4.6,2.8,7.5,2.8   c3.5,0,6.6-1.6,8.7-4.1l7.9,9.3c-0.2,0.9-0.4,1.8-0.4,2.8c0,6.3,5.1,11.4,11.4,11.4s11.4-5.1,11.4-11.4c0-2.5-0.8-4.7-2.1-6.6   l5.4-7.7c1.4,0.6,3,1,4.6,1c6.3,0,11.4-5.1,11.4-11.4S92,24,85.7,24z"></path></g></svg>